<?xml version="1.0" encoding="iso-8859-1"?>
<!-- Generator: Adobe Illustrator 19.0.0, SVG Export Plug-In . SVG Version: 6.00 Build 0)  -->
<svg xmlns="http://www.w3.org/2000/svg" xmlns:xlink="http://www.w3.org/1999/xlink" version="1.1" id="Capa_1" x="0px" y="0px" viewBox="0 0 512 512" style="enable-background:new 0 0 512 512;" xml:space="preserve" width="512" height="512">
<g>
	<path style="fill:#ECEAEC;" d="M504.918,143.14L82.315,197.922c-4.863,0.63-9.172-3.156-9.172-8.06V13.312   c0-4.903,4.309-8.69,9.172-8.06l422.603,54.782c4.051,0.525,7.082,3.975,7.082,8.06v66.987   C512,139.165,508.968,142.615,504.918,143.14z"/>
	<path style="fill:#DAD8DB;" d="M97.524,93.46V7.224L82.314,5.252c-4.862-0.63-9.172,3.156-9.172,8.059v176.551   c0,4.903,4.309,8.69,9.172,8.059l422.603-54.782c4.051-0.525,7.082-3.975,7.082-8.06v-9.112H130.032   C112.078,125.968,97.524,111.414,97.524,93.46z"/>
	<path style="fill:#ECEAEC;" d="M21.651,4.286c-7.992,1.3-13.524,8.805-13.524,16.901l0,478.622c0,4.488,3.639,8.127,8.127,8.127   h16.254c4.488,0,8.127-3.639,8.127-8.127V20.317C40.635,10.446,31.834,2.629,21.651,4.286z"/>
	<path style="fill:#DAD8DB;" d="M24.381,4.146c-0.9-0.001-1.801-0.011-2.73,0.14c-7.992,1.3-13.524,8.805-13.524,16.901V499.81   c0,4.488,3.638,8.127,8.127,8.127h8.127V4.146z"/>
	<rect x="8.127" y="296.635" style="fill:#FF8086;" width="32.508" height="130.032"/>
	<rect x="8.127" y="296.635" style="fill:#E5646E;" width="16.254" height="130.032"/>
	<rect x="8.127" y="36.571" style="fill:#FF8086;" width="32.508" height="130.032"/>
	<rect x="8.127" y="36.571" style="fill:#E5646E;" width="16.254" height="130.032"/>
	<path style="fill:#9B959D;" d="M73.143,44.698H8.127C3.639,44.698,0,41.06,0,36.571v0c0-4.488,3.639-8.127,8.127-8.127h65.016   V44.698z"/>
	<rect x="56.889" y="28.444" style="fill:#857E87;" width="16.254" height="16.254"/>
	<path style="fill:#9B959D;" d="M73.143,174.73H8.127c-4.488,0-8.127-3.639-8.127-8.127v0c0-4.488,3.639-8.127,8.127-8.127h65.016   V174.73z"/>
	<rect x="56.889" y="158.476" style="fill:#857E87;" width="16.254" height="16.254"/>
	<path style="fill:#FF8086;" d="M82.314,197.922l80.225-10.399V15.652L82.314,5.252c-4.863-0.63-9.172,3.156-9.172,8.06v176.551   C73.143,194.766,77.452,198.553,82.314,197.922z"/>
	<path style="fill:#E5646E;" d="M82.314,197.922l80.225-10.399v-61.555h-32.508c-17.954,0-32.508-14.555-32.508-32.508V7.224   L82.314,5.252c-4.863-0.63-9.172,3.156-9.172,8.059v176.551C73.143,194.766,77.452,198.552,82.314,197.922z"/>
	<polygon style="fill:#FF8086;" points="248.687,176.356 336.458,164.978 336.458,38.197 248.687,26.819  "/>
	<polygon style="fill:#E5646E;" points="248.687,176.356 336.458,164.978 336.458,125.968 248.687,125.968  "/>
	<path style="fill:#FF8086;" d="M504.918,60.034l-80.689-10.46V153.6l80.689-10.46c4.051-0.525,7.082-3.975,7.082-8.06V68.094   C512,64.009,508.968,60.559,504.918,60.034z"/>
	<path style="fill:#E5646E;" d="M424.229,153.6l80.689-10.46c4.051-0.525,7.082-3.975,7.082-8.06v-9.112h-87.771V153.6z"/>
</g>















</svg>
